<?xml version="1.0" standalone="no"?>
<!DOCTYPE svg PUBLIC "-//W3C//DTD SVG 20010904//EN"
 "http://www.w3.org/TR/2001/REC-SVG-20010904/DTD/svg10.dtd">
<svg version="1.0" xmlns="http://www.w3.org/2000/svg"
 width="1000.000000pt" height="1000.000000pt" viewBox="0 0 1000.000000 1000.000000"
 preserveAspectRatio="xMidYMid meet">
<metadata>
Created by potrace 1.14, written by Peter Selinger 2001-2017
</metadata>
<g transform="translate(0.000000,1000.000000) scale(0.100000,-0.100000)"
fill="#000000" stroke="none">
<path d="M3040 8480 l0 -220 -650 0 -650 0 0 -215 0 -215 -220 0 -220 0 0
-2175 0 -2175 220 0 220 0 0 -220 0 -220 435 0 435 0 0 -215 0 -215 650 0 650
0 0 -435 0 -435 -215 0 -215 0 0 -220 0 -220 -220 0 -220 0 0 -650 0 -650
1960 0 1960 0 0 650 0 650 -220 0 -220 0 0 220 0 220 -215 0 -215 0 0 435 0
435 1085 0 1085 0 0 870 0 870 -215 0 -215 0 0 870 0 870 -655 0 -655 0 0
-220 0 -220 220 0 220 0 0 -650 0 -650 -1090 0 -1090 0 0 870 0 870 -650 0
-650 0 0 -220 0 -220 215 0 215 0 0 -650 0 -650 -435 0 -435 0 0 215 0 215
-215 0 -215 0 0 655 0 655 215 0 215 0 0 215 0 215 220 0 220 0 0 220 0 220
435 0 435 0 0 -220 0 -220 650 0 650 0 0 -215 0 -215 220 0 220 0 0 215 0 215
870 0 870 0 0 220 0 220 215 0 215 0 0 -435 0 -435 220 0 220 0 0 1085 0 1085
-220 0 -220 0 0 220 0 220 -2610 0 -2610 0 0 -220z m3480 -4785 l0 -215 -870
0 -870 0 0 215 0 215 870 0 870 0 0 -215z"/>
<path d="M1300 1520 l0 -220 -215 0 -215 0 0 -215 0 -215 215 0 215 0 0 -220
0 -220 220 0 220 0 0 -215 0 -215 435 0 435 0 0 870 0 870 -655 0 -655 0 0
-220z"/>
<path d="M7390 870 l0 -870 435 0 435 0 0 215 0 215 220 0 220 0 0 220 0 220
435 0 435 0 0 215 0 215 -435 0 -435 0 0 220 0 220 -655 0 -655 0 0 -870z
m870 -220 l0 -220 -215 0 -215 0 0 220 0 220 215 0 215 0 0 -220z"/>
</g>
</svg>
